<?xml version="1.0" encoding="UTF-8"?>
<svg width="24px" height="24px" viewBox="0 0 24 24" version="1.1" xmlns="http://www.w3.org/2000/svg" xmlns:xlink="http://www.w3.org/1999/xlink">
    <!-- Generator: Sketch 50.2 (55047) - http://www.bohemiancoding.com/sketch -->
    <title>icon__spotify</title>
    <desc>Created with Sketch.</desc>
    <defs></defs>
    <g id="portfolio" stroke="none" stroke-width="1" fill="none" fill-rule="evenodd">
        <g id="Landing-Page" transform="translate(-636.000000, -1566.000000)" fill="#181818" fill-rule="nonzero">
            <g id="Group-3" transform="translate(370.000000, 1566.000000)">
                <g id="social-media" transform="translate(266.000000, 0.000000)">
                    <g id="icon__spotify">
                        <path d="M11.990243,0 C5.36820561,0 0,5.36820561 0,11.990243 C0,18.6122804 5.36820561,23.980486 11.990243,23.980486 C18.6122804,23.980486 23.980486,18.6122804 23.980486,11.990243 C23.980486,5.36820561 18.6122804,0 11.990243,0 Z M17.2085607,17.4011215 C17.0560935,17.6619813 16.7817196,17.8074393 16.4998879,17.8074953 C16.3593645,17.8074953 16.2170467,17.7713271 16.0869533,17.6953458 C13.9322804,16.4361308 11.4431215,16.233757 9.73396262,16.2857383 C7.84071028,16.3433271 6.45229907,16.7170654 6.43850467,16.7208785 C6.00207477,16.8400935 5.55106542,16.583271 5.43134579,16.1468972 C5.31168224,15.7105794 5.56760748,15.2598505 6.00381308,15.1396822 C6.06639252,15.1224673 7.5604486,14.7166542 9.63807477,14.6481308 C10.8618505,14.607757 12.0399813,14.6930467 13.139271,14.9015888 C14.5316075,15.1657009 15.8017009,15.6293271 16.9143364,16.2795701 C17.3053458,16.5080187 17.4370093,17.0102243 17.2085607,17.4011215 Z M18.7328972,14.2351963 C18.5523364,14.5442243 18.2273271,14.716486 17.8934579,14.7165421 C17.727028,14.7165421 17.5584112,14.673757 17.4043178,14.5837009 C14.8521308,13.0921121 11.9035514,12.8525047 9.87908411,12.9140187 C7.63642991,12.9822617 5.99181308,13.424972 5.97549533,13.4294579 C5.45865421,13.570486 4.92431776,13.2665047 4.78250467,12.7496075 C4.64074766,12.2327103 4.94394393,11.6988785 5.46061682,11.5565047 C5.53474766,11.5360935 7.30446729,11.0553645 9.76547664,10.9742243 C11.2151776,10.9264486 12.6106542,11.0274393 13.9127664,11.2744486 C15.5620374,11.5873458 17.0664673,12.136486 18.3843925,12.9066729 C18.8475701,13.1772897 19.0035701,13.7721308 18.7328972,14.2351963 Z M19.6699626,11.3565981 C19.4657944,11.3565981 19.2589907,11.3041121 19.0699626,11.1936449 C13.0022804,7.64758879 5.13134579,9.75571963 5.05256075,9.77747664 C4.41818692,9.95226168 3.76239252,9.57970093 3.58766355,8.94538318 C3.4128785,8.31106542 3.78543925,7.65521495 4.41975701,7.48048598 C4.51065421,7.45542056 6.68142056,6.86579439 9.70009346,6.76626168 C11.4783925,6.70771963 13.1900187,6.83153271 14.7871963,7.13450467 C16.8102056,7.51828037 18.6556262,8.19185047 20.2721495,9.13659813 C20.8401869,9.46856075 21.0315701,10.1981495 20.6996075,10.7661869 C20.4781121,11.1452523 20.0794766,11.3565981 19.6699626,11.3565981 Z" id="Shape"></path>
                    </g>
                </g>
            </g>
        </g>
    </g>
</svg>