<?xml version="1.0" encoding="UTF-8"?>
<svg width="115px" height="104px" viewBox="0 0 115 104" version="1.1" xmlns="http://www.w3.org/2000/svg" xmlns:xlink="http://www.w3.org/1999/xlink">
    <!-- Generator: Sketch 50.2 (55047) - http://www.bohemiancoding.com/sketch -->
    <title>logo__coin-and-crypto</title>
    <desc>Created with Sketch.</desc>
    <defs></defs>
    <g id="portfolio" stroke="none" stroke-width="1" fill="none" fill-rule="evenodd">
        <g id="Landing-Page" transform="translate(-774.000000, -1326.000000)" fill="#00D6BC">
            <g id="coinandcrypto" transform="translate(743.000000, 1326.000000)">
                <path d="M80.4950923,0 L80.4950923,12.6233042 C70.7382607,18.9349563 60.6958838,25.5972557 50.3679616,32.6102025 C43.9121479,37.8699126 41.76021,38.9218546 41.76021,47.3373908 C41.76021,55.7529269 41.76021,72.4641771 41.76021,78.8956513 C41.76021,85.2073034 45.6939741,88.8133776 48.2160237,90.0462431 C50.7380733,91.2791085 56.8237753,95.7267236 69.7354028,87.3111874 C82.6470302,78.8956513 91.2547818,72.5839992 95.5586576,68.3762311 C99.8625334,64.168463 99.8625334,62.064579 99.8625334,53.6490429 C99.8625334,48.0386854 99.8625334,41.7270333 99.8625334,34.7140866 L110.622223,28.4024345 L110.622223,57.8568109 C110.622223,64.8697577 107.752972,71.1814098 102.014471,76.7917672 C96.2759702,82.4021247 87.6682186,88.7137768 76.1912165,95.7267236 C71.4830864,98.5214075 68.0392959,100.326887 65.8598449,101.143161 C58.9757132,103.721489 50.1117534,103.511088 43.9121479,99.9344916 C30.7091753,92.317603 31.0005205,80.9995353 31.0005205,74.6878832 C31.0005205,70.4801151 31.0005205,60.8886006 31.0005205,45.2335067 C31.0005205,41.0257387 31.0005205,34.7140866 41.76021,26.2985504 C48.9333364,20.688193 61.8449638,11.9220095 80.4950923,0 Z M96.5049077,104 L96.5049077,91.3766958 C106.261739,85.0650437 116.304116,78.4027443 126.632038,71.3897975 C133.087852,66.1300874 135.23979,65.0781454 135.23979,56.6626092 C135.23979,48.2470731 135.23979,31.5358229 135.23979,25.1043487 C135.23979,18.7926966 131.306026,15.1866224 128.783976,13.9537569 C126.261927,12.7208915 120.176225,8.27327644 107.264597,16.6888126 C94.3529698,25.1043487 85.7452182,31.4160008 81.4413424,35.6237689 C77.1374666,39.831537 77.1374666,41.935421 77.1374666,50.3509571 C77.1374666,55.9613146 77.1374666,62.2729667 77.1374666,69.2859134 L66.3777771,75.5975655 L66.3777771,46.1431891 C66.3777771,39.1302423 69.2470276,32.8185902 74.9855287,27.2082328 C80.7240298,21.5978753 89.3317814,15.2862232 100.808784,8.27327644 C105.516914,5.47859246 108.960704,3.6731133 111.140155,2.85683897 C118.024287,0.278510694 126.888247,0.488911938 133.087852,4.06550838 C146.290825,11.682397 145.999479,23.0004647 145.999479,29.3121168 C145.999479,33.5198849 145.999479,43.1113994 145.999479,58.7664933 C145.999479,62.9742613 145.999479,69.2859134 135.23979,77.7014496 C128.066664,83.311807 115.155036,92.0779905 96.5049077,104 Z" id="logo__coin-and-crypto"></path>
            </g>
        </g>
    </g>
</svg>