<?xml version="1.0" encoding="UTF-8"?>
<svg width="165px" height="69px" viewBox="0 0 165 69" version="1.1" xmlns="http://www.w3.org/2000/svg" xmlns:xlink="http://www.w3.org/1999/xlink">
    <!-- Generator: Sketch 50.2 (55047) - http://www.bohemiancoding.com/sketch -->
    <title>logo/2</title>
    <desc>Created with Sketch.</desc>
    <defs></defs>
    <g id="portfolio" stroke="none" stroke-width="1" fill="none" fill-rule="evenodd">
        <g id="Landing-Page" transform="translate(-638.000000, -84.000000)" fill="#494949" fill-rule="nonzero">
            <g id="logo/2" transform="translate(638.000000, 83.000000)">
                <path d="M37.5153532,29.4062738 L37.6783418,28.949147 C37.6417968,29.0227815 37.6052788,29.0963081 37.5687875,29.1697268 C37.5510234,29.2483833 37.5332119,29.3272324 37.5153532,29.4062738 Z M28.4286445,39.9713322 C22.2675695,43.2131703 19.1255166,45.2608775 15.8662665,48.5366756 C11.3682313,53.0575483 8.59718611,58.2627296 8.3029745,62.1556698 C8.18417805,63.7275571 8.49897071,64.8473251 9.06541198,65.4097341 C9.55188669,65.8927459 10.3954146,66.0858262 11.8672019,65.8269557 C14.1368033,65.4277589 17.6434951,62.3092497 21.89622,56.4359367 C25.3049877,51.7281881 29.135879,45.3623213 33.3796787,37.3473303 C32.2863445,37.9399934 30.8051708,38.7208501 28.4286445,39.9713322 Z M123.325221,36.4074486 C123.455886,36.9326716 123.501844,37.0900612 123.583882,37.2757011 C123.838536,37.8519425 124.449487,38.2883 126.312465,38.7512511 C126.384889,38.7557049 126.489413,38.7583244 126.620857,38.7580257 C126.953124,38.7572704 127.405537,38.7382304 127.96294,38.7006713 C129.083528,38.6251633 130.584908,38.4781143 132.402809,38.2671455 C135.792608,37.873757 140.192791,37.2682427 144.835662,36.5632644 C147.408936,36.1725357 149.95101,35.7670683 152.249815,35.3819628 C150.475926,35.1315611 148.446299,34.8913185 146.148232,34.6653495 C139.590387,34.0205163 131.35526,33.5351084 121.304147,33.2368742 C122.362617,33.9502991 122.973208,34.9924931 123.325221,36.4074486 Z M63.6433261,27.5824784 C64.8593799,26.8063806 65.8987922,25.9822023 67.0081493,24.8720188 C68.7888342,23.0900073 70.6083297,20.8443547 71.5329306,19.0895013 C71.786547,18.6081482 71.9638922,18.1812001 72.0607957,17.8259973 C72.1061006,17.6599306 72.1305947,17.5223487 72.1394729,17.4168544 C72.0947386,17.4073732 72.0439505,17.3982454 71.9869411,17.3897998 L71.7923937,17.3609787 L71.647518,17.3185087 C71.6179014,17.3204562 71.5733013,17.3270932 71.5135329,17.3409535 C71.271559,17.3970671 70.9450493,17.5348227 70.5610349,17.7588052 C69.6753763,18.2753795 68.6443764,19.155167 67.6155245,20.2783206 C65.5695266,22.5118489 63.8571381,25.3553634 63.4388753,27.1335296 C63.4144318,27.2374465 63.3454913,27.5265886 63.2775453,27.8115412 C63.4023219,27.7348454 63.5233767,27.6590313 63.6433261,27.5824784 Z M90.4179122,33.0351707 C90.9678228,34.9002659 91.2761084,35.8552352 91.6284283,36.7101479 C91.8243503,37.1855572 92.0094088,37.5558867 92.1766796,37.8144825 C92.2199034,37.8813052 92.2590866,37.9362239 92.2926556,37.978766 C92.36232,37.9883448 92.4597792,37.9927544 92.585699,37.9881992 C93.0189289,37.9725271 93.6240828,37.856045 94.3931852,37.6297616 C95.7195807,37.2395129 95.7703003,37.2193652 100.388649,35.3133769 C101.903789,34.6880799 103.014935,34.2508046 104.130574,33.8531241 C105.131515,33.4963292 106.073883,33.1962883 106.973574,32.9543167 C101.812806,32.8976561 96.2853219,32.879949 90.3791439,32.9035916 C90.3953458,32.958597 90.4094071,33.0063246 90.4179122,33.0351707 Z M111.081481,36.7193891 C109.682518,36.8527703 108.040012,37.2742673 106.04093,37.9868593 C105.0269,38.34832 103.988715,38.7568827 102.549007,39.3510489 C97.6200081,41.3852423 97.6194601,41.38546 96.0067591,41.8599448 C93.2761411,42.6633404 91.1271519,42.7410802 89.3360303,41.6297575 C88.226635,40.94142 87.5194948,39.8482021 86.8519772,38.2284549 C86.4269617,37.1971448 86.0906992,36.1555117 85.5004225,34.1535094 C85.4687679,34.0461486 85.3614877,33.6817898 85.3506792,33.6451043 C85.2779656,33.3983053 85.2075234,33.1616359 85.139181,32.9346967 C83.7976654,32.9451742 82.4378291,32.9576672 81.0595462,32.972201 C79.6827589,35.1034298 78.0789629,37.5868822 77.4755133,38.4364455 C73.7837468,43.6338791 70.202141,46.0311867 64.591194,46.0311867 C61.1854016,46.0311867 58.7875566,44.3946329 57.6488803,41.6680198 C57.1622288,40.5027101 56.9028724,39.1614786 56.8322329,37.647471 C55.6426932,38.6745939 54.3921655,39.8611011 53.0409127,41.2543381 C50.8974102,43.4644406 48.9417556,45.1780053 47.3265409,46.2159739 C46.2976458,46.877162 45.360867,47.3045076 44.4141156,47.4591832 C42.8268383,47.7185048 41.3090033,47.1403914 40.5702616,45.8162373 C39.968419,44.7374672 40.0897192,43.663012 40.7020218,42.5581196 C41.0278978,41.9700806 41.2445699,41.678653 42.4441113,40.139199 C44.8492537,37.0525142 46.5757644,34.5235403 48.8205657,30.4435811 C49.5385493,29.1386353 50.2655875,27.7538073 50.9991025,26.2985353 C51.7578631,24.7931768 52.5069317,23.2471348 53.2446201,21.671681 C51.2214199,23.6074222 48.9034801,25.7926031 46.3045915,28.2127172 C44.7961518,29.6173932 43.2592619,30.8976893 41.6548149,32.0961112 C29.4892864,56.3954642 20.3242626,68.8892867 12.8647075,70.2013368 C6.52007794,71.3172842 2.79894508,67.6226403 3.23444489,61.860207 C3.60838191,56.9123584 6.85519359,50.8134889 12.0411723,45.6011797 C15.7324773,41.8911331 19.2373923,39.606945 25.8179824,36.1443662 C31.3690851,33.2234837 31.9028924,32.9345026 34.142369,31.5551909 C35.3029517,30.8403787 36.4118392,30.1073785 37.4836568,29.340908 C38.8151848,23.6509 39.8288322,19.0794318 40.6092426,15.4579057 C34.672617,20.9566236 24.6570057,28.2022456 10.41991,37.4147074 C9.29060948,38.145449 7.70062853,37.9338104 6.86858812,36.9419995 C6.0365477,35.9501885 6.2775246,34.5537838 7.40682508,33.8230422 C28.9207858,19.9019065 40.6492678,10.4102436 42.016023,6.23744903 C42.2416614,5.54855997 42.4151509,5.07492668 42.5673203,4.75441774 C42.6324375,4.61726371 42.6997184,4.49295392 42.7843828,4.36506639 C42.8606543,4.2498565 42.9465327,4.13817386 43.0571903,4.02166604 C43.2900559,3.77648938 43.5702982,3.56444691 43.986758,3.39956595 C44.7866593,3.08287641 45.7514903,3.133974 46.5244151,3.61842363 C47.023299,3.93111137 47.2896079,4.30025113 47.4525444,4.69755351 C47.5704008,4.98493331 47.6050615,5.21109596 47.6155481,5.46701323 C47.6391194,6.04225307 47.4593213,7.18360079 47.0463662,9.31658192 C46.4674553,12.3067519 45.4267421,17.1741775 43.9228625,23.9260895 C48.6022045,19.5514883 52.273321,16.0229049 54.8376397,13.4443789 C56.1362822,12.1385414 57.130655,11.0965856 57.8038043,10.3395384 C58.1123651,9.99252024 58.3451413,9.71451787 58.4965231,9.51500962 C58.5840778,9.37425777 58.6026736,9.33335627 58.6237799,9.28997908 C58.64534,9.23109085 58.64534,9.23109085 58.9013834,8.85562543 C58.9873425,8.75256431 58.9873425,8.75256431 59.1560142,8.59009957 C59.3951241,8.37953311 59.3951241,8.37953311 60.0374259,8.0788697 C60.5151202,7.93859459 60.5151202,7.93859459 61.2122706,7.93496357 C61.9688287,8.07080191 61.9688287,8.07080191 62.5760635,8.42986303 C63.0233591,8.81880965 63.0233591,8.81880965 63.2354266,9.15328307 C63.3771183,9.43726806 63.3771183,9.43726806 63.4372941,9.639629 C63.5122313,10.4255235 63.5122313,10.4255235 63.4680564,10.5416114 C63.4301693,10.7037482 63.4301693,10.7037482 63.4135486,10.7560655 C63.3526848,10.9408213 63.3038321,11.0546411 63.2408783,11.1772185 C63.2118502,11.2476164 63.174387,11.3389942 63.1216021,11.4680591 C63.1390219,11.4254657 62.95411,11.8778277 62.8931959,12.0266208 C62.3657618,13.3149695 61.8780553,14.4872429 61.2974643,15.8486755 C59.4984751,20.06714 57.6071933,24.2095109 55.6440214,28.1043856 C54.8884977,29.6033221 54.1379561,31.0329183 53.3942622,32.3845929 C52.5155395,33.9816844 51.707896,35.3596562 50.9099217,36.6276133 C52.9289755,34.6789643 54.786298,33.1328013 56.606643,31.845342 C56.8568475,31.668382 57.1051665,31.4970332 57.3537159,31.3297095 C57.4775938,30.6298027 57.6215142,29.907895 57.7846492,29.1564691 C57.8977922,28.6353146 58.0153572,28.1211855 58.1552657,27.5290855 C58.2117073,27.2902216 58.4196972,26.4203115 58.4642351,26.2309669 C59.0643167,23.6798322 61.1448281,20.2250296 63.6576872,17.4818489 C64.9880302,16.0295704 66.3790779,14.8425418 67.7507966,14.0424652 C69.5056907,13.0188956 71.2862373,12.5829343 73.012636,13.0195453 C75.2844258,13.4082967 76.8143036,14.6765769 77.1528869,16.5391934 C77.3969676,17.8819316 77.0003463,19.3357599 76.1429737,20.9630166 C74.9774093,23.1752085 72.8997811,25.739453 70.8260787,27.8147002 C69.4624822,29.1793127 68.1433834,30.2252619 66.6294631,31.1914611 C66.0449381,31.5645109 65.4601075,31.9098583 64.6736561,32.3540988 C63.460497,33.0393724 62.675399,33.4832198 62.0971592,33.8203362 C62.0592966,34.1199228 62.0263758,34.4147959 61.9984846,34.7056871 C61.7741247,37.0456484 61.9086944,38.9124837 62.4179113,40.1318272 C62.8555799,41.1798449 63.4271439,41.5699432 64.591194,41.5699432 C68.1108419,41.5699432 70.3067207,40.1001564 73.1656822,36.0751828 C73.5221831,35.573285 74.2973278,34.3899678 75.1696146,33.045203 C73.9525745,33.0624698 72.7220478,33.0812401 71.477957,33.1015292 C70.0754833,33.1244014 68.9174418,32.1444317 68.891399,30.9127056 C68.8653562,29.6809796 69.981174,28.6639268 71.3836477,28.6410546 C73.6614843,28.6039067 75.8943822,28.5718286 78.0828209,28.5447299 C78.3745351,28.0973679 78.6141226,27.7334856 78.7748713,27.496285 C79.9610004,25.7460346 81.1163176,24.6458171 82.5094669,24.1716975 C84.3592628,23.542171 86.0773281,24.1596126 87.2601882,25.4938507 C87.9381225,26.2585445 88.4300548,27.1128876 88.9468248,28.4488138 C115.007449,28.3171285 133.928624,28.9746769 146.713427,30.2318072 C157.532525,31.2956496 162.934414,32.6533304 164.304332,34.3060733 C164.988319,35.1312715 164.924671,36.1533131 164.356622,36.8951471 C164.111782,37.2148912 163.850158,37.4107917 163.552173,37.5757293 C163.319333,37.7046082 163.097948,37.7917218 162.832748,37.8775744 C162.51749,37.9796323 162.109034,38.0855917 161.583612,38.2058338 C160.661597,38.4168356 159.33819,38.6797465 157.680981,38.9830494 C154.467109,39.5712536 150.128107,40.287082 145.701049,40.959291 C134.536118,42.6545858 126.947335,43.5352694 125.054241,43.0746448 C121.662965,42.2494851 119.733484,40.8927702 118.848364,38.889879 C118.636733,38.4109908 118.551692,38.1197581 118.362612,37.3597289 C118.276151,37.0121899 118.226297,36.8517124 118.191231,36.7757306 C117.202371,36.4141513 114.978688,36.3478183 111.081481,36.7193891 Z" id="jknott_signature-copy" opacity="0.1"></path>
                <path d="M34.3153532,27.8062738 L34.4783418,27.349147 C34.4417968,27.4227815 34.4052788,27.4963081 34.3687875,27.5697268 C34.3510234,27.6483833 34.3332119,27.7272324 34.3153532,27.8062738 Z M25.2286445,38.3713322 C19.0675695,41.6131703 15.9255166,43.6608775 12.6662665,46.9366756 C8.16823134,51.4575483 5.39718611,56.6627296 5.1029745,60.5556698 C4.98417805,62.1275571 5.29897071,63.2473251 5.86541198,63.8097341 C6.35188669,64.2927459 7.19541455,64.4858262 8.6672019,64.2269557 C10.9368033,63.8277589 14.4434951,60.7092497 18.69622,54.8359367 C22.1049877,50.1281881 25.935879,43.7623213 30.1796787,35.7473303 C29.0863445,36.3399934 27.6051708,37.1208501 25.2286445,38.3713322 Z M120.125221,34.8074486 C120.255886,35.3326716 120.301844,35.4900612 120.383882,35.6757011 C120.638536,36.2519425 121.249487,36.6883 123.112465,37.1512511 C123.184889,37.1557049 123.289413,37.1583244 123.420857,37.1580257 C123.753124,37.1572704 124.205537,37.1382304 124.76294,37.1006713 C125.883528,37.0251633 127.384908,36.8781143 129.202809,36.6671455 C132.592608,36.273757 136.992791,35.6682427 141.635662,34.9632644 C144.208936,34.5725357 146.75101,34.1670683 149.049815,33.7819628 C147.275926,33.5315611 145.246299,33.2913185 142.948232,33.0653495 C136.390387,32.4205163 128.15526,31.9351084 118.104147,31.6368742 C119.162617,32.3502991 119.773208,33.3924931 120.125221,34.8074486 Z M60.4433261,25.9824784 C61.6593799,25.2063806 62.6987922,24.3822023 63.8081493,23.2720188 C65.5888342,21.4900073 67.4083297,19.2443547 68.3329306,17.4895013 C68.586547,17.0081482 68.7638922,16.5812001 68.8607957,16.2259973 C68.9061006,16.0599306 68.9305947,15.9223487 68.9394729,15.8168544 C68.8947386,15.8073732 68.8439505,15.7982454 68.7869411,15.7897998 L68.5923937,15.7609787 L68.447518,15.7185087 C68.4179014,15.7204562 68.3733013,15.7270932 68.3135329,15.7409535 C68.071559,15.7970671 67.7450493,15.9348227 67.3610349,16.1588052 C66.4753763,16.6753795 65.4443764,17.555167 64.4155245,18.6783206 C62.3695266,20.9118489 60.6571381,23.7553634 60.2388753,25.5335296 C60.2144318,25.6374465 60.1454913,25.9265886 60.0775453,26.2115412 C60.2023219,26.1348454 60.3233767,26.0590313 60.4433261,25.9824784 Z M87.2179122,31.4351707 C87.7678228,33.3002659 88.0761084,34.2552352 88.4284283,35.1101479 C88.6243503,35.5855572 88.8094088,35.9558867 88.9766796,36.2144825 C89.0199034,36.2813052 89.0590866,36.3362239 89.0926556,36.378766 C89.16232,36.3883448 89.2597792,36.3927544 89.385699,36.3881992 C89.8189289,36.3725271 90.4240828,36.256045 91.1931852,36.0297616 C92.5195807,35.6395129 92.5703003,35.6193652 97.1886489,33.7133769 C98.7037893,33.0880799 99.8149348,32.6508046 100.930574,32.2531241 C101.931515,31.8963292 102.873883,31.5962883 103.773574,31.3543167 C98.6128057,31.2976561 93.0853219,31.279949 87.1791439,31.3035916 C87.1953458,31.358597 87.2094071,31.4063246 87.2179122,31.4351707 Z M107.881481,35.1193891 C106.482518,35.2527703 104.840012,35.6742673 102.84093,36.3868593 C101.8269,36.74832 100.788715,37.1568827 99.3490071,37.7510489 C94.4200081,39.7852423 94.4194601,39.78546 92.8067591,40.2599448 C90.0761411,41.0633404 87.9271519,41.1410802 86.1360303,40.0297575 C85.026635,39.34142 84.3194948,38.2482021 83.6519772,36.6284549 C83.2269617,35.5971448 82.8906992,34.5555117 82.3004225,32.5535094 C82.2687679,32.4461486 82.1614877,32.0817898 82.1506792,32.0451043 C82.0779656,31.7983053 82.0075234,31.5616359 81.939181,31.3346967 C80.5976654,31.3451742 79.2378291,31.3576672 77.8595462,31.372201 C76.4827589,33.5034298 74.8789629,35.9868822 74.2755133,36.8364455 C70.5837468,42.0338791 67.002141,44.4311867 61.391194,44.4311867 C57.9854016,44.4311867 55.5875566,42.7946329 54.4488803,40.0680198 C53.9622288,38.9027101 53.7028724,37.5614786 53.6322329,36.047471 C52.4426932,37.0745939 51.1921655,38.2611011 49.8409127,39.6543381 C47.6974102,41.8644406 45.7417556,43.5780053 44.1265409,44.6159739 C43.0976458,45.277162 42.160867,45.7045076 41.2141156,45.8591832 C39.6268383,46.1185048 38.1090033,45.5403914 37.3702616,44.2162373 C36.768419,43.1374672 36.8897192,42.063012 37.5020218,40.9581196 C37.8278978,40.3700806 38.0445699,40.078653 39.2441113,38.539199 C41.6492537,35.4525142 43.3757644,32.9235403 45.6205657,28.8435811 C46.3385493,27.5386353 47.0655875,26.1538073 47.7991025,24.6985353 C48.5578631,23.1931768 49.3069317,21.6471348 50.0446201,20.071681 C48.0214199,22.0074222 45.7034801,24.1926031 43.1045915,26.6127172 C41.5961518,28.0173932 40.0592619,29.2976893 38.4548149,30.4961112 C26.2892864,54.7954642 17.1242626,67.2892867 9.66470746,68.6013368 C3.32007794,69.7172842 -0.401054917,66.0226403 0.0344448915,60.260207 C0.40838191,55.3123584 3.65519359,49.2134889 8.84117231,44.0011797 C12.5324773,40.2911331 16.0373923,38.006945 22.6179824,34.5443662 C28.1690851,31.6234837 28.7028924,31.3345026 30.942369,29.9551909 C32.1029517,29.2403787 33.2118392,28.5073785 34.2836568,27.740908 C35.6151848,22.0509 36.6288322,17.4794318 37.4092426,13.8579057 C31.472617,19.3566236 21.4570057,26.6022456 7.21990996,35.8147074 C6.09060948,36.545449 4.50062853,36.3338104 3.66858812,35.3419995 C2.8365477,34.3501885 3.0775246,32.9537838 4.20682508,32.2230422 C25.7207858,18.3019065 37.4492678,8.81024356 38.816023,4.63744903 C39.0416614,3.94855997 39.2151509,3.47492668 39.3673203,3.15441774 C39.4324375,3.01726371 39.4997184,2.89295392 39.5843828,2.76506639 C39.6606543,2.6498565 39.7465327,2.53817386 39.8571903,2.42166604 C40.0900559,2.17648938 40.3702982,1.96444691 40.786758,1.79956595 C41.5866593,1.48287641 42.5514903,1.533974 43.3244151,2.01842363 C43.823299,2.33111137 44.0896079,2.70025113 44.2525444,3.09755351 C44.3704008,3.38493331 44.4050615,3.61109596 44.4155481,3.86701323 C44.4391194,4.44225307 44.2593213,5.58360079 43.8463662,7.71658192 C43.2674553,10.7067519 42.2267421,15.5741775 40.7228625,22.3260895 C45.4022045,17.9514883 49.073321,14.4229049 51.6376397,11.8443789 C52.9362822,10.5385414 53.930655,9.49658559 54.6038043,8.73953842 C54.9123651,8.39252024 55.1451413,8.11451787 55.2965231,7.91500962 C55.3840778,7.77425777 55.4026736,7.73335627 55.4237799,7.68997908 C55.44534,7.63109085 55.44534,7.63109085 55.7013834,7.25562543 C55.7873425,7.15256431 55.7873425,7.15256431 55.9560142,6.99009957 C56.1951241,6.77953311 56.1951241,6.77953311 56.8374259,6.4788697 C57.3151202,6.33859459 57.3151202,6.33859459 58.0122706,6.33496357 C58.7688287,6.47080191 58.7688287,6.47080191 59.3760635,6.82986303 C59.8233591,7.21880965 59.8233591,7.21880965 60.0354266,7.55328307 C60.1771183,7.83726806 60.1771183,7.83726806 60.2372941,8.039629 C60.3122313,8.82552353 60.3122313,8.82552353 60.2680564,8.94161142 C60.2301693,9.1037482 60.2301693,9.1037482 60.2135486,9.15606547 C60.1526848,9.34082127 60.1038321,9.45464108 60.0408783,9.57721852 C60.0118502,9.64761642 59.974387,9.73899416 59.9216021,9.86805912 C59.9390219,9.82546571 59.75411,10.2778277 59.6931959,10.4266208 C59.1657618,11.7149695 58.6780553,12.8872429 58.0974643,14.2486755 C56.2984751,18.46714 54.4071933,22.6095109 52.4440214,26.5043856 C51.6884977,28.0033221 50.9379561,29.4329183 50.1942622,30.7845929 C49.3155395,32.3816844 48.507896,33.7596562 47.7099217,35.0276133 C49.7289755,33.0789643 51.586298,31.5328013 53.406643,30.245342 C53.6568475,30.068382 53.9051665,29.8970332 54.1537159,29.7297095 C54.2775938,29.0298027 54.4215142,28.307895 54.5846492,27.5564691 C54.6977922,27.0353146 54.8153572,26.5211855 54.9552657,25.9290855 C55.0117073,25.6902216 55.2196972,24.8203115 55.2642351,24.6309669 C55.8643167,22.0798322 57.9448281,18.6250296 60.4576872,15.8818489 C61.7880302,14.4295704 63.1790779,13.2425418 64.5507966,12.4424652 C66.3056907,11.4188956 68.0862373,10.9829343 69.812636,11.4195453 C72.0844258,11.8082967 73.6143036,13.0765769 73.9528869,14.9391934 C74.1969676,16.2819316 73.8003463,17.7357599 72.9429737,19.3630166 C71.7774093,21.5752085 69.6997811,24.139453 67.6260787,26.2147002 C66.2624822,27.5793127 64.9433834,28.6252619 63.4294631,29.5914611 C62.8449381,29.9645109 62.2601075,30.3098583 61.4736561,30.7540988 C60.260497,31.4393724 59.475399,31.8832198 58.8971592,32.2203362 C58.8592966,32.5199228 58.8263758,32.8147959 58.7984846,33.1056871 C58.5741247,35.4456484 58.7086944,37.3124837 59.2179113,38.5318272 C59.6555799,39.5798449 60.2271439,39.9699432 61.391194,39.9699432 C64.9108419,39.9699432 67.1067207,38.5001564 69.9656822,34.4751828 C70.3221831,33.973285 71.0973278,32.7899678 71.9696146,31.445203 C70.7525745,31.4624698 69.5220478,31.4812401 68.277957,31.5015292 C66.8754833,31.5244014 65.7174418,30.5444317 65.691399,29.3127056 C65.6653562,28.0809796 66.781174,27.0639268 68.1836477,27.0410546 C70.4614843,27.0039067 72.6943822,26.9718286 74.8828209,26.9447299 C75.1745351,26.4973679 75.4141226,26.1334856 75.5748713,25.896285 C76.7610004,24.1460346 77.9163176,23.0458171 79.3094669,22.5716975 C81.1592628,21.942171 82.8773281,22.5596126 84.0601882,23.8938507 C84.7381225,24.6585445 85.2300548,25.5128876 85.7468248,26.8488138 C111.807449,26.7171285 130.728624,27.3746769 143.513427,28.6318072 C154.332525,29.6956496 159.734414,31.0533304 161.104332,32.7060733 C161.788319,33.5312715 161.724671,34.5533131 161.156622,35.2951471 C160.911782,35.6148912 160.650158,35.8107917 160.352173,35.9757293 C160.119333,36.1046082 159.897948,36.1917218 159.632748,36.2775744 C159.31749,36.3796323 158.909034,36.4855917 158.383612,36.6058338 C157.461597,36.8168356 156.13819,37.0797465 154.480981,37.3830494 C151.267109,37.9712536 146.928107,38.687082 142.501049,39.359291 C131.336118,41.0545858 123.747335,41.9352694 121.854241,41.4746448 C118.462965,40.6494851 116.533484,39.2927702 115.648364,37.289879 C115.436733,36.8109908 115.351692,36.5197581 115.162612,35.7597289 C115.076151,35.4121899 115.026297,35.2517124 114.991231,35.1757306 C114.002371,34.8141513 111.778688,34.7478183 107.881481,35.1193891 Z" id="jknott_signature"></path>
            </g>
        </g>
    </g>
</svg>